<?xml version="1.0" standalone="no"?>
<!DOCTYPE svg PUBLIC "-//W3C//DTD SVG 20010904//EN"
 "http://www.w3.org/TR/2001/REC-SVG-20010904/DTD/svg10.dtd">
<svg version="1.0" xmlns="http://www.w3.org/2000/svg"
 width="509.000000pt" height="490.000000pt" viewBox="0 0 509.000000 490.000000"
 preserveAspectRatio="xMidYMid meet">

<g transform="translate(0.000000,490.000000) scale(0.100000,-0.100000)"
fill="#000000" stroke="none">
<path d="M2577 4845 c-14 -46 -18 -92 -8 -115 9 -21 9 -18 5 16 -4 26 -2 44 5
48 6 4 11 1 11 -7 0 -13 50 -67 63 -67 4 0 -6 12 -23 28 -21 19 -33 41 -38 72
-6 33 -10 40 -15 25z"/>
<path d="M2580 4695 c0 -5 5 -17 10 -25 5 -8 10 -10 10 -5 0 6 -5 17 -10 25
-5 8 -10 11 -10 5z"/>
<path d="M2602 4625 c0 -16 2 -22 5 -12 2 9 2 23 0 30 -3 6 -5 -1 -5 -18z"/>
<path d="M2600 4583 c0 -5 5 -14 11 -20 12 -12 22 -187 13 -217 -5 -15 -8 -16
-15 -5 -5 9 -9 10 -9 2 0 -6 -3 -19 -7 -29 -4 -11 -3 -15 4 -11 7 5 10 -1 7
-15 -2 -13 5 -5 16 17 17 34 19 55 16 147 -3 81 -8 111 -20 123 -9 9 -16 13
-16 8z"/>
<path d="M2702 4520 c0 -14 2 -19 5 -12 2 6 2 18 0 25 -3 6 -5 1 -5 -13z"/>
<path d="M2681 4354 c0 -11 3 -14 6 -6 3 7 2 16 -1 19 -3 4 -6 -2 -5 -13z"/>
<path d="M2582 4270 c0 -14 2 -19 5 -12 2 6 2 18 0 25 -3 6 -5 1 -5 -13z"/>
<path d="M2645 4249 c-5 -16 -12 -19 -32 -14 -16 4 -22 2 -18 -5 3 -5 17 -10
30 -10 13 0 25 -6 28 -12 2 -7 4 4 4 25 -1 43 -3 45 -12 16z"/>
<path d="M2590 4139 c0 -9 -9 -27 -21 -40 -18 -20 -20 -32 -15 -74 23 -175 21
-191 -23 -231 -27 -24 -29 -31 -35 -127 -27 -438 -90 -1468 -121 -1987 -13
-228 -27 -449 -30 -490 -4 -57 -16 -103 -50 -190 -25 -63 -45 -127 -45 -142 0
-15 -4 -29 -8 -32 -4 -2 -177 -10 -382 -16 -206 -6 -422 -15 -480 -19 l-105
-9 -360 -176 c-198 -97 -376 -185 -395 -196 -19 -10 -118 -53 -220 -94 -119
-49 -193 -86 -208 -102 -28 -32 -28 -44 2 -44 17 0 26 7 30 25 4 16 13 25 26
25 18 0 19 -2 8 -22 -7 -13 -17 -26 -21 -29 -12 -9 1085 -19 1847 -17 375 1
665 3 644 5 -43 5 -49 16 -34 63 10 33 14 35 60 38 l49 3 -5 -50 -5 -51 221 2
c122 1 201 3 176 5 -25 3 -49 8 -53 12 -5 5 -3 27 4 50 l12 41 63 0 64 0 -10
-26 c-6 -14 -10 -36 -10 -50 l0 -24 538 2 c295 1 507 3 470 5 l-68 4 0 44 c0
24 4 46 10 50 5 3 38 8 73 12 l63 6 0 -51 c0 -29 3 -54 7 -58 3 -3 48 -3 99 2
51 4 86 9 77 11 -18 4 -35 101 -20 116 5 5 37 11 71 14 54 5 65 3 77 -12 20
-28 17 -92 -4 -98 -10 -3 -4 -5 12 -5 40 0 207 25 174 27 -24 1 -27 6 -33 53
-4 29 -14 60 -22 70 -17 17 -22 15 74 33 36 7 48 -6 62 -70 10 -43 9 -51 -6
-62 -34 -25 1 -13 93 32 51 25 97 55 104 66 13 24 6 79 -17 152 -15 45 -15 49
1 61 16 12 15 14 -12 34 -16 11 -42 24 -59 27 -63 15 -60 11 -54 68 3 28 9 57
13 64 4 6 3 14 -3 18 -5 3 -7 17 -4 30 3 12 1 26 -5 29 -6 4 -11 18 -11 31 0
18 -7 26 -24 31 -14 3 -27 11 -29 18 -3 7 -33 23 -67 35 -49 18 -64 20 -76 10
-12 -9 -20 -9 -40 1 -17 10 -28 10 -35 3 -8 -8 -20 -6 -42 5 -29 15 -31 14
-45 -6 -17 -26 -37 -28 -46 -6 -4 11 -13 14 -30 10 -13 -3 -36 0 -52 8 -16 8
-57 16 -91 20 -56 5 -62 4 -68 -14 -4 -11 -15 -20 -26 -20 -11 0 -27 -5 -37
-11 -14 -9 -26 -6 -56 10 -43 25 -67 21 -91 -15 -9 -13 -20 -22 -26 -19 -16
10 -119 14 -124 5 -8 -13 -57 -1 -70 17 -7 9 -19 14 -27 10 -9 -3 -20 -1 -26
5 -17 17 -72 -1 -72 -23 0 -21 -15 -25 -26 -8 -4 7 -21 9 -40 6 -19 -3 -36 -1
-40 4 -4 6 -11 6 -19 -1 -8 -6 -36 -11 -62 -10 -26 1 -52 1 -58 0 -5 -1 -13
-2 -17 -1 -18 3 -155 1 -170 -2 -10 -2 -20 -6 -23 -9 -3 -3 -23 -2 -45 2 -21
4 -43 4 -47 0 -4 -4 -25 -10 -45 -13 l-37 -6 -49 80 c-56 90 -48 38 -77 509
-18 289 -56 882 -90 1415 -13 209 -29 477 -35 595 -14 259 -14 260 -43 260
-13 0 -31 6 -41 13 -16 12 -17 25 -12 123 9 164 8 168 -12 185 -11 8 -23 25
-27 38 -5 16 -10 19 -19 12 -9 -7 -16 -7 -24 1 -9 9 -12 8 -12 -3z m134 -527
c3 -81 13 -300 21 -487 8 -187 22 -479 30 -650 8 -170 17 -368 20 -440 3 -71
14 -312 25 -535 10 -223 22 -489 26 -592 l7 -188 -172 0 -171 0 0 47 c0 49 25
737 60 1668 11 292 24 665 30 830 5 165 12 355 16 422 l6 123 48 -26 47 -26 7
-146z m-328 -2024 c-17 -343 -27 -455 -43 -505 -9 -29 -21 -53 -25 -53 -5 0
-1 17 8 38 9 22 19 90 24 172 5 74 12 167 14 205 3 39 8 116 12 173 3 56 8
102 11 102 3 0 2 -60 -1 -132z m61 85 c-3 -10 -5 -2 -5 17 0 19 2 27 5 18 2
-10 2 -26 0 -35z m-10 -175 c-2 -24 -4 -5 -4 42 0 47 2 66 4 43 2 -24 2 -62 0
-85z m-10 -218 c-6 -157 -9 -174 -32 -218 -15 -26 -23 -38 -20 -27 4 11 13 38
20 60 8 22 17 111 20 198 4 86 10 157 13 157 3 0 2 -77 -1 -170z m-119 -287
c-6 -16 -17 -44 -24 -63 -7 -19 -13 -27 -14 -18 0 18 36 108 44 108 3 0 0 -12
-6 -27z m55 -18 c-9 -19 -18 -33 -20 -31 -6 6 19 66 28 66 5 0 1 -16 -8 -35z
m1938 14 c23 1 45 -6 63 -20 22 -17 29 -19 42 -8 13 11 19 9 35 -11 l19 -25
24 26 c22 25 25 26 56 12 23 -9 36 -10 40 -3 5 8 15 7 33 -1 19 -9 30 -9 39
-1 17 13 102 -14 143 -46 15 -12 32 -22 37 -22 5 0 6 -5 3 -10 -4 -6 -1 -21 7
-33 16 -25 15 -150 -1 -182 -6 -11 -11 -31 -13 -45 l-3 -25 -140 2 c-197 4
-557 24 -575 33 -12 6 -15 28 -14 99 l1 90 -46 17 c-25 9 -54 27 -64 40 -18
24 -18 25 3 54 30 42 60 57 72 36 5 -9 13 -14 17 -11 29 17 53 -80 37 -145 -7
-26 8 -60 20 -47 4 4 3 12 -4 19 -8 8 -7 18 3 38 10 19 12 44 8 79 -6 52 -3
56 34 52 6 -1 20 10 30 23 13 18 24 23 38 19 11 -3 36 -5 56 -4z m-625 -66
c-11 -11 -19 6 -11 24 8 17 8 17 12 0 3 -10 2 -21 -1 -24z m84 -15 c0 -10 11
-23 25 -28 22 -8 25 -15 25 -59 0 -40 -4 -53 -22 -66 -21 -14 -23 -14 -27 2
-2 9 2 19 8 21 18 6 12 22 -8 22 -23 0 -36 -16 -21 -25 16 -10 1 -25 -26 -25
-26 0 -38 -18 -31 -47 3 -15 6 -13 15 10 10 23 16 27 35 21 12 -4 25 -11 28
-15 3 -5 15 0 27 11 11 11 25 20 30 20 9 0 34 -101 27 -108 -9 -9 -671 22
-677 32 -5 8 -8 7 -8 -1 0 -24 -39 -13 -54 15 -13 25 -12 30 9 56 13 17 22 33
19 37 -5 9 35 49 48 49 4 0 8 -9 8 -21 0 -30 40 -69 70 -67 23 1 24 1 3 5 -13
2 -23 11 -23 19 0 8 -7 17 -15 20 -8 4 -15 16 -15 28 0 12 -5 27 -11 33 -33
33 35 86 97 76 60 -9 77 -21 70 -49 -4 -13 -1 -33 6 -44 11 -17 11 -22 0 -29
-13 -8 -6 -41 9 -41 14 0 23 70 10 83 -13 13 -15 47 -2 47 5 0 13 -9 16 -20 5
-14 12 -19 28 -15 45 10 71 -75 52 -162 -5 -20 -4 -33 3 -33 12 0 22 48 22
110 0 34 -5 52 -20 65 -25 22 -26 40 -2 41 9 1 24 4 33 8 13 6 19 -2 28 -38 9
-35 16 -46 31 -46 15 0 20 -7 20 -27 0 -16 7 -37 15 -47 8 -10 12 -23 9 -27
-3 -5 3 -6 12 -2 13 5 15 3 9 -8 -6 -10 -5 -11 4 -3 9 8 9 17 0 37 -7 15 -16
27 -20 27 -4 0 -9 15 -11 33 -2 24 -8 33 -24 35 -16 2 -23 12 -27 35 -5 36 0
48 12 28 7 -10 13 -11 30 -2 11 7 21 16 21 21 0 5 14 7 30 4 19 -4 30 -2 31 5
1 10 4 24 8 35 0 2 15 -1 31 -7 18 -7 30 -19 30 -29z m31 21 c34 -24 38 -39 9
-32 -11 3 -20 11 -20 19 0 7 -8 18 -17 23 -10 6 -14 11 -10 11 5 0 22 -9 38
-21z m-1460 -30 c-5 -13 -10 -19 -10 -12 -1 15 10 45 15 40 3 -2 0 -15 -5 -28z
m1070 21 c5 0 9 -4 9 -10 0 -15 -20 -12 -38 7 -16 16 -16 16 1 10 10 -4 23 -7
28 -7z m-221 -26 c0 -14 -12 -19 -23 -8 -9 9 4 35 14 28 5 -3 9 -12 9 -20z
m424 5 c-3 -5 -10 -7 -15 -3 -5 3 -7 10 -3 15 3 5 10 7 15 3 5 -3 7 -10 3 -15z
m-154 -14 c0 -2 -7 -5 -15 -9 -9 -3 -15 0 -15 9 0 9 6 12 15 9 8 -4 15 -7 15
-9z m-282 -29 c-2 -1 -12 -8 -22 -16 -18 -14 -18 -14 -6 7 8 12 18 19 23 16 4
-3 7 -6 5 -7z m772 -121 l0 -55 -38 0 c-39 0 -51 14 -66 83 -6 27 -6 27 49 27
l55 0 0 -55z m137 43 c4 -7 7 -32 8 -55 l0 -43 -41 0 -42 0 -4 48 c-3 26 -3
50 -1 55 7 12 71 8 80 -5z m-2084 -25 c-7 -2 -21 -2 -30 0 -10 3 -4 5 12 5 17
0 24 -2 18 -5z m267 -24 c0 -15 -5 -19 -17 -15 -10 2 -65 8 -123 13 l-105 8
80 6 c163 11 165 11 165 -12z m819 -6 c-1 -10 1 -26 6 -36 4 -10 6 -20 4 -22
-3 -2 -96 3 -209 10 -113 8 -234 16 -270 18 -40 2 -20 4 50 5 220 4 340 14
340 29 0 9 13 13 41 13 32 0 40 -3 38 -17z m-611 -20 c-16 -2 -40 -2 -55 0
-16 2 -3 4 27 4 30 0 43 -2 28 -4z m2469 -87 c4 -3 -4 -6 -16 -6 -12 0 -20 -4
-16 -9 3 -5 -8 -3 -25 5 -16 9 -30 17 -30 18 0 6 81 -2 87 -8z m-53 -35 c10
-15 -73 -22 -168 -14 l-91 8 110 6 c61 3 118 6 127 7 9 1 19 -2 22 -7z m76
-180 c13 -25 -2 -66 -30 -81 -27 -14 -27 -14 -44 43 l-14 46 27 4 c14 2 31 5
38 6 7 0 17 -8 23 -18z m-1554 -152 c-3 -17 -6 -40 -6 -50 0 -17 -8 -19 -65
-19 -73 0 -76 4 -51 65 15 34 16 35 72 35 l57 0 -7 -31z m268 9 c-4 -13 -7
-35 -6 -50 1 -28 1 -28 -69 -28 -76 0 -80 5 -58 69 11 30 12 31 76 31 62 0 64
-1 57 -22z m268 -28 l-4 -50 -74 0 c-81 0 -81 0 -68 69 l7 31 71 0 71 0 -3
-50z m-1026 -2 c-9 -57 -11 -58 -67 -58 -56 0 -68 14 -53 59 8 22 17 27 59 32
28 3 54 7 59 7 5 1 6 -17 2 -40z m-1016 15 c0 -3 -8 -24 -17 -44 -17 -36 -21
-39 -60 -39 -47 0 -50 6 -32 59 10 29 14 31 60 31 27 0 49 -3 49 -7z m175 -15
c-3 -13 -9 -33 -12 -45 -4 -19 -12 -23 -44 -23 -47 0 -54 10 -35 55 14 32 18
35 57 35 38 0 41 -2 34 -22z m198 10 c15 -12 15 -15 -4 -45 -18 -28 -27 -33
-60 -33 -35 0 -39 2 -39 26 0 43 17 64 53 64 18 0 41 -6 50 -12z m207 -14 c0
-49 -16 -64 -70 -64 -56 0 -64 11 -42 58 15 30 19 32 64 32 45 0 48 -2 48 -26z
m-1550 9 c0 -5 -12 -21 -25 -36 -20 -22 -32 -28 -58 -25 l-32 3 32 33 c28 29
84 46 83 25z m128 0 c-3 -5 -11 -23 -18 -40 -11 -26 -20 -33 -42 -33 -22 0
-28 5 -28 21 0 39 19 59 56 59 20 0 34 -3 32 -7z m140 -33 c-18 -31 -29 -40
-50 -40 -32 0 -37 22 -12 58 11 15 25 22 50 22 l35 0 -23 -40z m175 34 c3 -3
-2 -21 -10 -40 -15 -30 -21 -34 -55 -34 -40 0 -45 8 -27 41 15 29 75 50 92 33z
m167 2 c0 -2 -7 -20 -15 -40 -14 -33 -19 -36 -55 -36 -45 0 -52 15 -22 55 13
18 27 24 55 25 20 0 37 -2 37 -4z m157 -36 c-10 -38 -13 -40 -48 -40 -47 0
-54 11 -34 50 13 25 21 30 54 30 l38 0 -10 -40z m-1437 25 c0 -17 -35 -55 -51
-55 -25 0 -24 8 3 37 19 21 48 31 48 18z m120 0 c0 -2 -5 -16 -12 -30 -8 -18
-19 -25 -40 -25 -32 0 -34 7 -12 38 13 18 64 33 64 17z m118 -25 c-15 -21 -30
-30 -50 -30 -15 0 -28 5 -28 12 0 24 34 48 67 48 l34 0 -23 -30z m130 1 c-15
-20 -32 -30 -50 -30 -34 -1 -35 6 -6 36 13 14 33 23 51 23 l29 0 -24 -29z
m147 -1 c-21 -22 -38 -30 -62 -30 l-34 0 16 30 c14 27 20 30 62 30 l47 0 -29
-30z"/>
<path d="M2607 1848 c-2 -57 -2 -106 2 -109 3 -4 41 -10 84 -13 l77 -7 0 109
0 109 -37 7 c-21 3 -57 6 -79 6 l-41 0 -6 -102z m153 -18 c0 -5 -2 -10 -4 -10
-3 0 -8 5 -11 10 -3 6 -1 10 4 10 6 0 11 -4 11 -10z"/>
<path d="M4279 923 c-1 -4 -1 -16 0 -25 3 -24 -16 -23 -29 2 -18 34 -28 22
-15 -17 10 -29 10 -39 2 -41 -30 -7 -85 -162 -58 -162 6 0 20 -9 32 -21 22
-22 50 -22 57 0 3 9 -1 11 -14 7 -26 -7 -64 27 -64 57 0 28 39 96 55 97 14 0
55 62 55 83 0 16 -19 35 -21 20z"/>
<path d="M4400 890 c0 -5 5 -20 11 -33 9 -19 7 -31 -5 -55 -9 -17 -16 -42 -16
-55 0 -16 -8 -28 -25 -35 -14 -6 -25 -16 -25 -22 0 -12 51 18 63 38 7 11 12
11 25 -1 10 -8 30 -17 45 -21 25 -6 29 -3 41 26 19 48 27 120 13 115 -7 -2
-14 -26 -17 -53 -3 -27 -9 -54 -12 -60 -10 -15 -53 -6 -73 16 -15 17 -15 21 1
51 13 25 14 37 5 51 -6 10 -11 25 -11 33 0 8 -4 15 -10 15 -5 0 -10 -4 -10
-10z"/>
<path d="M4640 840 c-19 -19 -22 -30 -17 -74 8 -62 -2 -83 -31 -67 -26 14 -62
14 -62 1 0 -5 9 -10 21 -10 11 0 18 -3 15 -8 -2 -4 13 -6 34 -4 44 4 50 17 43
86 -4 36 -2 51 12 66 25 28 11 36 -15 10z"/>
<path d="M4720 838 c0 -7 4 -19 9 -27 5 -7 4 -25 -2 -41 -11 -29 2 -60 26 -60
5 0 2 9 -8 20 -17 19 -17 21 -2 38 14 15 15 23 5 50 -12 32 -28 43 -28 20z"/>
<path d="M3260 806 c0 -3 14 -11 30 -20 29 -14 43 -5 18 11 -15 9 -48 15 -48
9z"/>
<path d="M3180 720 c0 -5 7 -10 15 -10 8 0 15 5 15 10 0 6 -7 10 -15 10 -8 0
-15 -4 -15 -10z"/>
<path d="M3240 715 c0 -16 55 -45 86 -45 21 0 44 29 37 47 -4 10 -13 7 -35 -8
l-30 -22 -29 22 c-24 18 -29 19 -29 6z"/>
<path d="M4478 203 c12 -2 30 -2 40 0 9 3 -1 5 -23 4 -22 0 -30 -2 -17 -4z"/>
</g>
</svg>
